<svg width="121" height="121" xmlns="http://www.w3.org/2000/svg" xmlns:xlink="http://www.w3.org/1999/xlink" xml:space="preserve" overflow="hidden"><g transform="translate(-544 -239)"><path d="M625.196 329.75 583.602 329.75C578.382 329.75 574.149 333.982 574.149 339.203 574.149 344.424 578.382 348.656 583.602 348.656L625.196 348.656C630.417 348.656 634.649 344.424 634.649 339.203 634.649 333.982 630.417 329.75 625.196 329.75ZM586.123 342.984C584.035 342.984 582.342 341.292 582.342 339.203 582.342 337.115 584.035 335.422 586.123 335.422 588.211 335.422 589.904 337.115 589.904 339.203 589.904 341.292 588.211 342.984 586.123 342.984ZM604.399 342.984C602.311 342.984 600.618 341.292 600.618 339.203 600.618 337.115 602.311 335.422 604.399 335.422 606.488 335.422 608.18 337.115 608.18 339.203 608.18 341.292 606.488 342.984 604.399 342.984ZM622.675 342.984C620.587 342.984 618.894 341.292 618.894 339.203 618.894 337.115 620.587 335.422 622.675 335.422 624.764 335.422 626.456 337.115 626.456 339.203 626.456 341.292 624.764 342.984 622.675 342.984Z"/><path d="M613.109 274.292C613.109 275.336 612.262 276.182 611.218 276.182 610.174 276.182 609.327 275.336 609.327 274.292 609.327 273.247 610.174 272.401 611.218 272.401 612.262 272.401 613.109 273.247 613.109 274.292Z"/><path d="M615.352 261.688 607.021 261.688 607.021 255.953C609.432 254.56 610.258 251.477 608.866 249.066 607.474 246.654 604.391 245.828 601.979 247.22 599.568 248.612 598.742 251.696 600.134 254.107 600.576 254.874 601.213 255.51 601.979 255.953L601.979 261.688 593.648 261.688C590.595 261.694 588.122 264.168 588.115 267.221L588.115 281.363C588.122 284.416 590.595 286.889 593.648 286.896L615.352 286.896C618.405 286.889 620.878 284.416 620.885 281.363L620.885 267.221C620.878 264.168 618.405 261.694 615.352 261.688ZM598.198 278.073C596.11 278.073 594.417 276.38 594.417 274.292 594.417 272.203 596.11 270.51 598.198 270.51 600.286 270.51 601.979 272.203 601.979 274.292 601.979 276.38 600.286 278.073 598.198 278.073ZM610.802 278.073C608.714 278.073 607.021 276.38 607.021 274.292 607.021 272.203 608.714 270.51 610.802 270.51 612.89 270.51 614.583 272.203 614.583 274.292 614.583 276.38 612.89 278.073 610.802 278.073Z"/><path d="M600.504 274.292C600.504 275.336 599.658 276.182 598.614 276.182 597.57 276.182 596.723 275.336 596.723 274.292 596.723 273.247 597.57 272.401 598.614 272.401 599.658 272.401 600.504 273.247 600.504 274.292Z"/><path d="M637.271 313.138 637.271 302.638C637.271 299.513 634.737 296.979 631.612 296.979L624.667 296.979 624.667 290.677 584.333 290.677 584.333 298.24 574.868 298.24C574.527 298.24 574.25 297.963 574.25 297.622L574.25 287.173C578.583 285.894 581.058 281.344 579.778 277.011 579.435 275.85 578.839 274.779 578.031 273.876L574.25 277.228C574.779 277.804 575.079 278.552 575.094 279.333 575.085 281.074 573.667 282.477 571.926 282.467 570.186 282.458 568.783 281.039 568.793 279.299 568.797 278.547 569.069 277.822 569.561 277.254L565.78 273.939C562.809 277.352 563.168 282.527 566.581 285.497 567.353 286.169 568.244 286.691 569.208 287.034L569.208 297.622C569.208 300.748 571.742 303.281 574.868 303.281L584.333 303.281 584.333 325.969 624.667 325.969 624.667 302.021 631.612 302.021C631.953 302.021 632.229 302.297 632.229 302.638L632.229 313.138C627.924 314.53 625.563 319.149 626.956 323.454 627.304 324.532 627.873 325.525 628.624 326.372L632.406 323.019C631.884 322.448 631.596 321.701 631.599 320.927 631.6 319.187 633.012 317.777 634.753 317.779 636.493 317.78 637.903 319.192 637.901 320.932 637.9 321.696 637.623 322.433 637.12 323.007L640.901 326.322C643.883 322.928 643.55 317.76 640.156 314.777 639.317 314.039 638.334 313.481 637.271 313.138ZM619.625 308.323 616.121 308.323C615.999 308.345 615.883 308.392 615.781 308.462L611.924 312.407 608.987 305.449 603.504 316.793 599.66 302.021 596.698 308.323 590.635 308.323 590.635 305.802 595.097 305.802 600.341 294.647 604.223 309.495 609.151 299.412 612.781 308.008 614.041 306.747C614.595 306.187 615.335 305.851 616.121 305.802L619.625 305.802Z"/></g></svg>